<svg width="327" height="36" viewBox="0 0 327 36" fill="none" xmlns="http://www.w3.org/2000/svg">
<path d="M221.952 0.288025V6.14402H224.832V29.856H221.952V35.712H248.16V26.592H242.304V29.472H231.744V20.928H239.904V23.136H245.664V12.576H239.904V14.784H231.744V6.43202H242.304V9.40802H248.16V0.288025H221.952Z" fill="black"/>
<path d="M33.792 11.616V0.288025H40.512V6.43202L33.792 11.616Z" fill="black"/>
<path d="M213.024 5.47202C210.528 1.92002 207.168 0.288025 202.368 0.288025H186.72V6.14402H189.6V29.856H186.72V35.712H202.368C207.168 35.712 210.528 34.08 213.024 30.528C215.232 27.456 215.232 23.904 215.232 18.048C215.328 12.096 215.232 8.44802 213.024 5.47202ZM206.976 27.36C205.824 28.8 204.192 29.568 201.792 29.568H196.512V6.52802H201.792C204.096 6.52802 205.824 7.29602 206.976 8.73602C208.224 10.272 208.416 12.48 208.416 18.048C208.416 23.52 208.224 25.824 206.976 27.36Z" fill="black"/>
<path d="M179.328 29.856L168.48 0.288025H163.104L152.352 29.856H150.24V35.712H162.912V29.856H159.36L160.896 25.152H170.688L172.224 29.856H168.672V35.712H181.44V29.856H179.328ZM165.984 10.752L168.864 19.392H163.008L165.984 10.752Z" fill="black"/>
<path d="M111.936 29.856L101.184 0.288025H95.808L84.96 29.856H82.848V35.712H95.52V29.856H92.064L93.6 25.152H103.392L104.928 29.856H101.376V35.712H114.048V29.856H111.936ZM98.592 10.752L101.472 19.392H95.616L98.592 10.752Z" fill="black"/>
<path d="M56.64 19.872L52.608 19.488C50.688 19.296 49.92 18.528 49.92 17.28C49.92 16.032 50.976 14.784 53.568 14.784C55.008 14.784 56.448 14.976 57.696 15.456V17.184H63.552V12.48C61.056 10.176 57.696 9.40802 53.664 9.40802C48.384 9.40802 43.68 12.192 43.68 17.664C43.68 22.464 46.56 24.48 51.168 24.96L55.296 25.344C57.408 25.536 57.984 26.4 57.984 27.744C57.984 29.664 55.68 30.432 53.376 30.432C52.224 30.432 50.784 30.336 49.44 29.856V27.552H43.584V33.312C46.56 35.52 49.728 35.904 53.28 35.904C59.424 35.904 64.224 33.216 64.224 27.456C64.32 23.136 61.728 20.448 56.64 19.872Z" fill="black"/>
<path d="M324.096 6.14402H326.976V0.288025H314.304V6.14402H316.896L312.96 14.592L309.12 6.14402H311.52V0.288025H298.944V6.14402H301.824L309.504 21.12V29.856H306.624V35.712H319.296V29.856H316.416V21.12L324.096 6.14402Z" fill="black"/>
<path d="M293.664 6.14402V0.288025H283.968L274.752 19.392L265.536 0.288025H255.84V6.14402H258.72V29.856H255.84V35.712H268.512V29.856H265.632V15.072L272.448 28.416H277.152L283.872 15.072V29.856H280.992V35.712H293.664V29.856H290.784V6.14402H293.664Z" fill="black"/>
<path d="M13.056 16.032V21.888H18.24V27.456C18.144 27.552 18.048 27.744 17.952 27.84C16.896 29.088 15.168 29.856 13.056 29.856C11.136 29.856 9.696 29.184 8.64 28.032C7.392 26.496 6.912 24.768 6.912 18.048C6.912 11.328 7.296 9.6 8.64 8.16C9.696 7.008 11.136 6.24 13.056 6.24C14.688 6.24 16.032 6.624 17.088 7.488V11.424H24V5.28C21.792 2.112 18.24 0 13.056 0C9.024 0 6.048 1.344 3.552 3.744C0.0960001 7.296 0 11.232 0 17.952C0 24.672 0.0960001 28.704 3.552 32.16C5.952 34.56 8.928 35.904 12.96 35.904C16.704 35.904 19.968 34.944 22.944 31.872C23.904 30.912 24.576 29.856 25.152 28.704V16.032H13.056Z" fill="black"/>
<path d="M132.768 0C128.736 0 125.76 1.344 123.264 3.744C119.712 7.296 119.712 11.232 119.712 18.048C119.712 24.768 119.808 28.8 123.264 32.256C125.664 34.656 128.64 36 132.768 36C137.376 36 141.312 34.08 143.616 30.432V24.864H136.704V28.512C135.744 29.376 134.4 29.952 132.768 29.952C130.848 29.952 129.312 29.28 128.352 28.128C127.104 26.592 126.624 24.864 126.624 18.144C126.624 11.424 127.104 9.696 128.352 8.16C129.312 7.008 130.848 6.336 132.768 6.336C134.496 6.336 135.744 6.912 136.704 7.776V11.328H143.616V5.568C141.312 1.92 137.472 0 132.768 0Z" fill="black"/>
</svg>
